*******************************************************************************
                                Unaware (2010)
*******************************************************************************

-------------------------------------------------------------------------------
                              General Information
-------------------------------------------------------------------------------
Type.................: Movie



Video Format.........: MKV
Video Bitrate........: 1768
Resolution...........: 720 x 404
Color................: 8 bit
FPS..................: 23.976
Source...............: DVD 16x9
Original Format......: NTSC
Genre................: Horror / Science Fiction 
IMDb Rating..........: 4.6
Movie Information....: http://www.imdb.com/title/tt1709173/

-------------------------------------------------------------------------------
                               Post Information
-------------------------------------------------------------------------------
Posted by............: RadioResearch
Posted on............: 3/19/2013

-------------------------------------------------------------------------------
                                 Release Notes
-------------------------------------------------------------------------------
SEEDBOX SUPPORTED!

In July 2010, a vacationing couple discovered something disturbing on a ranch in 
rural Texas. Armed with a home camcorder, they captured their experience on 
video. 

From the IMDB:
"One of the BEST "Found Footage" Films EVER!"
"You can add "UNAWARE" to the list as one of the top "Found Footage" movies to 
ever be made/distributed as it is being released on DVD on March 12th 2013. 
Pre-Orders at amazon.com and bestbuy.com being taken now. If you aren't familiar 
with it, "UNAWARE" is a Sci-Fi/Horror/Thriller that deals with Aliens (remember 
the Roswell incident) and what happened to those recovered Alien bodies from the 
1947 wreckage. "UNAWARE" won many Film Festival awards (I think 14 to be 
accurate if you count official selections as well as taking home an award in one 
of many categories) and is without a doubt one of the BEST "Found Footage" 
movies ever to be released! It will either change your belief in Alien life 
forms or strengthen your already existing belief. The Official Trailer can be 
seen on Youtube or the IMDb page as well as read about some of the festival 
awards and critic reviews."

Prior to the film's release, the Executive Producer and his wife were confronted 
by a SWAT team armed with assault rifles. 

Enjoy!

RadioResearch

General
Unique ID                                : 
171594429153149764311956720513695271709 (0x8117E28B66F5882DA83C9C285D1ECB1D)
Complete name                            : G:Unaware 
(2010)UNAWARE_DVD.Title3.mkv
Format                                   : Matroska
Format version                           : Version 2
File size                                : 1 020 MiB
Duration                                 : 1h 20mn
Overall bit rate                         : 1 768 Kbps
Movie name                               : UNAWARE_DVD.Title3.DVDRip
Encoded date                             : UTC 2013-03-19 18:44:00
Writing application                      : DVDFab
Writing library                          : libebml v0.7.8 + libmatroska v0.8.1

Video
ID                                       : 1
Format                                   : AVC
Format/Info                              : Advanced Video Codec
Format profile                           : High@L4.1
Format settings, CABAC                   : Yes
Format settings, ReFrames                : 2 frames
Codec ID                                 : V_MPEG4/ISO/AVC
Duration                                 : 1h 20mn
Bit rate                                 : 1 669 Kbps
Width                                    : 720 pixels
Height                                   : 404 pixels
Display aspect ratio                     : 16:9
Frame rate mode                          : Constant
Frame rate                               : 23.976 fps
Color space                              : YUV
Chroma subsampling                       : 4:2:0
Bit depth                                : 8 bits
Scan type                                : Progressive
Bits/(Pixel*Frame)                       : 0.239
Stream size                              : 963 MiB (94%)
Writing library                          : x264 core
Default                                  : Yes
Forced                                   : No
Color primaries                          : BT.601 NTSC
Transfer characteristics                 : BT.709
Matrix coefficients                      : BT.601

Audio
ID                                       : 2
Format                                   : AC-3
Format/Info                              : Audio Coding 3
Mode extension                           : CM (complete main)
Format settings, Endianness              : Big
Codec ID                                 : A_AC3
Duration                                 : 1h 20mn
Bit rate mode                            : Constant
Bit rate                                 : 64.0 Kbps
Channel(s)                               : 2 channels
Channel positions                        : Front: L R
Sampling rate                            : 48.0 KHz
Bit depth                                : 16 bits
Compression mode                         : Lossy
Stream size                              : 36.9 MiB (4%)
Default                                  : Yes
Forced                                   : No

Menu
00:00:00.000                             : en:(01)00:00:00:000
00:00:43.000                             : en:(02)00:00:43:000
00:08:05.000                             : en:(03)00:08:05:000
00:14:05.000                             : en:(04)00:14:05:000
00:19:16.000                             : en:(05)00:19:16:000
00:25:19.000                             : en:(06)00:25:19:000
00:31:26.000                             : en:(07)00:31:26:000
00:37:09.000                             : en:(08)00:37:09:000
00:42:45.000                             : en:(09)00:42:45:000
00:47:20.000                             : en:(10)00:47:20:000
00:53:37.000                             : en:(11)00:53:37:000
00:58:21.000                             : en:(12)00:58:21:000
01:04:19.000                             : en:(13)01:04:19:000
01:08:43.000                             : en:(14)01:08:43:000
01:13:20.000                             : en:(15)01:13:20:000
01:18:38.000                             : en:(16)01:18:38:000
01:20:04.000                             : en:(17)01:20:04:000



-------------------------------------------------------------------------------
Generated with Cool NFO Creator - http://fly.to/coolbeans
-------------------------------------------------------------------------------
